<svg viewBox="97 -8 156 101" class="css-1j8o68f" xmlns="http://www.w3.org/2000/svg" preserveAspectRatio="xMidYMid meet">
  <defs id="SvgjsDefs1281">
    <linearGradient id="SvgjsLinearGradient1286">
      <stop id="SvgjsStop1287" stop-color="#fbb040" offset="0"></stop>
      <stop id="SvgjsStop1288" stop-color="#f9ed32" offset="1"></stop>
    </linearGradient>
  </defs>
  <g id="SvgjsG1282" featurekey="aMgJeN-0" transform="matrix(1.6372333250743378,0,0,1.6372333250743378,93.13836575472425,-39.16756461310918)" fill="url(#SvgjsLinearGradient1286)">
    <path xmlns="http://www.w3.org/2000/svg" fill-rule="evenodd" clip-rule="evenodd" d="M91.6650391,44.4272461  c0.199707-0.1000977,0.3999023-0.1166992,0.6000977-0.050293c0.199707,0.1000977,0.3330078,0.2333984,0.3999023,0.4003906  c0.1000977,0.199707,0.1166992,0.3999023,0.0498047,0.5996094c-0.1000977,0.2001953-0.2333984,0.3334961-0.3999023,0.4003906  l-3.6499023,1.6499023c-0.1669922,0.0664063-0.2836914,0.0834961-0.3500977,0.0498047l-4.6499023-0.25l-1,2l4.199707,4.300293  l2.7001953-0.6000977c0.4667969-0.1333008,0.7666016,0.0498047,0.8999023,0.5498047  c0.1333008,0.4667969-0.0498047,0.7666016-0.5498047,0.8999023l-2.75,0.6000977l-5.5,7.550293  c-0.1669922,0.2666016-0.3999023,0.3666992-0.7001953,0.2998047c-0.2333984,0-0.4331055-0.1333008-0.6000977-0.3999023  l-0.949707-1.8500977l-4.4501953-0.0498047c-0.2333984,0-0.4331055-0.1000977-0.6000977-0.300293l-2.25-3.25l-2.3999023,2.75  l5.3500977,4.3500977c0.3334961,0.2666016,0.3833008,0.6000977,0.1499023,1l-3.3500977,5  c-0.1665039,0.2666016-0.4165039,0.3666992-0.75,0.2998047c-0.3330078-0.0664063-0.5332031-0.25-0.5996094-0.5498047l-0.7001953-3  l-10.0498047-1.9501953l-3.7001953,3.9003906l2.25,3.25h5.75c0.2001953,0,0.3833008,0.0830078,0.5498047,0.25  c0.1333008,0.1333008,0.2001953,0.2998047,0.2001953,0.5c0,0.5-0.25,0.75-0.75,0.75H19.6650391c-0.5,0-0.75-0.25-0.75-0.75  s0.25-0.75,0.75-0.75h4.6499023l2.2001953-9.5c0.0664063-0.2333984,0.199707-0.4003906,0.3999023-0.5l5.199707-2.6000977  l-13.449707-4.9501953l-10.4501953,2.5c-0.3330078,0.1000977-0.6166992-0.0166016-0.8500977-0.3500977  c-0.199707-0.3662109-0.1499023-0.6665039,0.1503906-0.8999023l10-9.699707l0.3496094-0.2001953l23.050293-5.7001953h0.25  l26.199707,2.5l-1.0498047-1.949707c-0.1000977-0.2001953-0.1000977-0.4165039,0-0.6499023l3.7001953-9.300293  c0.0332031-0.1333008,0.1499023-0.2666016,0.3496094-0.3999023l12.75-6.2998047  c0.300293-0.1669922,0.5668945-0.1333008,0.800293,0.0996094c0.2998047,0.2333984,0.3833008,0.5,0.25,0.800293l-4.25,12.699707  l3.949707,8.1000977l4.3500977,0.25L91.6650391,44.4272461z M18.3647461,47.2270508l-7.8496094,7.6499023l8-1.8999023  c0.1665039-0.0332031,0.3164063-0.0332031,0.449707,0l13.4501953,4.9501953l1.199707-7.75  c0.0336914-0.2001953,0.1333008-0.3666992,0.300293-0.5c0.1665039-0.1000977,0.3500977-0.1333008,0.5498047-0.1000977  c0.2001953,0.0332031,0.3666992,0.1333008,0.5,0.2998047c0.1333008,0.1669922,0.1665039,0.3500977,0.1000977,0.550293  l-1.4501953,9.5498047c0,0.2666016-0.1333008,0.4501953-0.3999023,0.550293l-5.2998047,2.699707l-2.1000977,8.800293h6.1000977l-1-5  c-0.1333008-0.3666992,0.0166016-0.6333008,0.449707-0.800293l7.4501953-3.25h0.0498047l3.300293-1.3999023v-0.1000977  l3.3999023-10.199707c0.1665039-0.4335938,0.4833984-0.6000977,0.9501953-0.5c0.4663086,0.1665039,0.6333008,0.4833984,0.5,0.949707  l-3.1503906,9.5l1.050293,0.300293h0.0498047l7.1000977,1.8496094l1.8500977-5.449707  c0.0664063-0.2001953,0.199707-0.3500977,0.3999023-0.4501953s0.3833008-0.1166992,0.5498047-0.0498047  c0.4667969,0.1665039,0.6333008,0.4833984,0.5,0.949707l-2.0996094,6.1000977v0.050293l-2.75,7.5h6l-2.050293-2.9003906  c-0.2333984-0.3330078-0.199707-0.6499023,0.1000977-0.949707l4.3999023-4.6499023v-0.050293l3.8500977-4.199707  c0.3666992-0.3666992,0.7333984-0.3833008,1.1000977-0.050293c0.3666992,0.3666992,0.3833008,0.7333984,0.0498047,1.1000977  l-2.449707,2.6499023l3.7998047-0.6000977l2.75-3.0498047v-0.0498047l3.2001953-3.6000977l-1.7001953-2.5  c-0.2998047-0.3999023-0.2333984-0.75,0.2001953-1.050293c0.3999023-0.2998047,0.75-0.2329102,1.0498047,0.2001953l4.5498047,6.75  h3.300293l-3.5-6.8999023c-0.1000977-0.1665039-0.1166992-0.3500977-0.050293-0.550293  c0.0668945-0.199707,0.2001953-0.3496094,0.4003906-0.449707c0.4331055-0.2333984,0.7666016-0.1166992,1,0.3500977  l4.0498047,7.949707v0.050293l0.6000977,1.1499023l4.5498047-6.2001953l-4.5-4.6000977  c-0.2666016-0.2666016-0.3164063-0.5498047-0.1499023-0.8496094l1.3999023-2.75l-4.0498047-8.25  c-0.1000977-0.1669922-0.1166992-0.3500977-0.050293-0.550293l3.800293-11.2998047l-10.8999023,5.3500977l-3.4501953,8.75  l1.5498047,2.8496094v0.050293l2.300293,4.6000977c0.2333984,0.4331055,0.1166992,0.7666016-0.3500977,1  c-0.4335938,0.2333984-0.7666016,0.1166992-1-0.3500977l-2.1000977-4.2001953l-27.0498047-2.6000977L18.3647461,47.2270508z   M71.1650391,66.0273438l0.3999023,1.75l2-3l-4.8500977-3.9501953l-2.449707,2.7998047  c-0.2001953,0.1337891-0.3500977,0.2001953-0.4501953,0.2001953l-2,0.2998047l6.75,1.3500977  C70.8984375,65.5439453,71.0981445,65.7270508,71.1650391,66.0273438z M51.5649414,64.7773438l-5.9501953-1.550293  l0.6000977,5.3999023l2.6499023,3.4003906h0.050293L51.5649414,64.7773438z M58.5649414,75.3769531  c0,0.4667969-0.25,0.7001953-0.75,0.7001953h-1.8999023c-0.5,0-0.75-0.2333984-0.75-0.7001953  c0-0.199707,0.0830078-0.3662109,0.25-0.5c0.1333008-0.1665039,0.2998047-0.25,0.5-0.25h1.8999023  c0.2001953,0,0.3833008,0.0834961,0.5498047,0.25C58.4980469,75.0107422,58.5649414,75.1772461,58.5649414,75.3769531z   M53.4150391,75.3769531c0,0.4667969-0.25,0.7001953-0.75,0.7001953H27.5649414c-0.5,0-0.75-0.2333984-0.75-0.7001953  c0-0.5,0.25-0.75,0.75-0.75h25.1000977c0.199707,0,0.3833008,0.0834961,0.5498047,0.25  C53.3481445,75.0107422,53.4150391,75.1772461,53.4150391,75.3769531z M33.4648438,72.0273438h7.75l-2.5-7.3500977  l-6.199707,2.6499023L33.4648438,72.0273438z M43.0151367,62.8271484l-2.9501953,1.25l2.75,7.9501953h4.1499023  l-2.0498047-2.6503906c-0.1000977-0.1333008-0.1499023-0.2666016-0.1499023-0.3999023l-0.7001953-6.1499023l-0.75-0.2001953  L43.0151367,62.8271484z"></path>
  </g>
</svg>
