<svg viewBox="0 0 349.99999999999994 144.0786947732599" class="css-1j8o68f" xmlns="http://www.w3.org/2000/svg" preserveAspectRatio="xMidYMid meet">
  <defs id="SvgjsDefs1281">
    <linearGradient id="SvgjsLinearGradient1286">
      <stop id="SvgjsStop1287" stop-color="#fbb040" offset="0"/>
      <stop id="SvgjsStop1288" stop-color="#f9ed32" offset="1"/>
    </linearGradient>
  </defs>
  <g id="SvgjsG1282" featurekey="aMgJeN-0" transform="matrix(1.6372333250743378,0,0,1.6372333250743378,93.13836575472425,-39.16756461310918)" fill="url(#SvgjsLinearGradient1286)">
    <path xmlns="http://www.w3.org/2000/svg" fill-rule="evenodd" clip-rule="evenodd" d="M91.6650391,44.4272461  c0.199707-0.1000977,0.3999023-0.1166992,0.6000977-0.050293c0.199707,0.1000977,0.3330078,0.2333984,0.3999023,0.4003906  c0.1000977,0.199707,0.1166992,0.3999023,0.0498047,0.5996094c-0.1000977,0.2001953-0.2333984,0.3334961-0.3999023,0.4003906  l-3.6499023,1.6499023c-0.1669922,0.0664063-0.2836914,0.0834961-0.3500977,0.0498047l-4.6499023-0.25l-1,2l4.199707,4.300293  l2.7001953-0.6000977c0.4667969-0.1333008,0.7666016,0.0498047,0.8999023,0.5498047  c0.1333008,0.4667969-0.0498047,0.7666016-0.5498047,0.8999023l-2.75,0.6000977l-5.5,7.550293  c-0.1669922,0.2666016-0.3999023,0.3666992-0.7001953,0.2998047c-0.2333984,0-0.4331055-0.1333008-0.6000977-0.3999023  l-0.949707-1.8500977l-4.4501953-0.0498047c-0.2333984,0-0.4331055-0.1000977-0.6000977-0.300293l-2.25-3.25l-2.3999023,2.75  l5.3500977,4.3500977c0.3334961,0.2666016,0.3833008,0.6000977,0.1499023,1l-3.3500977,5  c-0.1665039,0.2666016-0.4165039,0.3666992-0.75,0.2998047c-0.3330078-0.0664063-0.5332031-0.25-0.5996094-0.5498047l-0.7001953-3  l-10.0498047-1.9501953l-3.7001953,3.9003906l2.25,3.25h5.75c0.2001953,0,0.3833008,0.0830078,0.5498047,0.25  c0.1333008,0.1333008,0.2001953,0.2998047,0.2001953,0.5c0,0.5-0.25,0.75-0.75,0.75H19.6650391c-0.5,0-0.75-0.25-0.75-0.75  s0.25-0.75,0.75-0.75h4.6499023l2.2001953-9.5c0.0664063-0.2333984,0.199707-0.4003906,0.3999023-0.5l5.199707-2.6000977  l-13.449707-4.9501953l-10.4501953,2.5c-0.3330078,0.1000977-0.6166992-0.0166016-0.8500977-0.3500977  c-0.199707-0.3662109-0.1499023-0.6665039,0.1503906-0.8999023l10-9.699707l0.3496094-0.2001953l23.050293-5.7001953h0.25  l26.199707,2.5l-1.0498047-1.949707c-0.1000977-0.2001953-0.1000977-0.4165039,0-0.6499023l3.7001953-9.300293  c0.0332031-0.1333008,0.1499023-0.2666016,0.3496094-0.3999023l12.75-6.2998047  c0.300293-0.1669922,0.5668945-0.1333008,0.800293,0.0996094c0.2998047,0.2333984,0.3833008,0.5,0.25,0.800293l-4.25,12.699707  l3.949707,8.1000977l4.3500977,0.25L91.6650391,44.4272461z M18.3647461,47.2270508l-7.8496094,7.6499023l8-1.8999023  c0.1665039-0.0332031,0.3164063-0.0332031,0.449707,0l13.4501953,4.9501953l1.199707-7.75  c0.0336914-0.2001953,0.1333008-0.3666992,0.300293-0.5c0.1665039-0.1000977,0.3500977-0.1333008,0.5498047-0.1000977  c0.2001953,0.0332031,0.3666992,0.1333008,0.5,0.2998047c0.1333008,0.1669922,0.1665039,0.3500977,0.1000977,0.550293  l-1.4501953,9.5498047c0,0.2666016-0.1333008,0.4501953-0.3999023,0.550293l-5.2998047,2.699707l-2.1000977,8.800293h6.1000977l-1-5  c-0.1333008-0.3666992,0.0166016-0.6333008,0.449707-0.800293l7.4501953-3.25h0.0498047l3.300293-1.3999023v-0.1000977  l3.3999023-10.199707c0.1665039-0.4335938,0.4833984-0.6000977,0.9501953-0.5c0.4663086,0.1665039,0.6333008,0.4833984,0.5,0.949707  l-3.1503906,9.5l1.050293,0.300293h0.0498047l7.1000977,1.8496094l1.8500977-5.449707  c0.0664063-0.2001953,0.199707-0.3500977,0.3999023-0.4501953s0.3833008-0.1166992,0.5498047-0.0498047  c0.4667969,0.1665039,0.6333008,0.4833984,0.5,0.949707l-2.0996094,6.1000977v0.050293l-2.75,7.5h6l-2.050293-2.9003906  c-0.2333984-0.3330078-0.199707-0.6499023,0.1000977-0.949707l4.3999023-4.6499023v-0.050293l3.8500977-4.199707  c0.3666992-0.3666992,0.7333984-0.3833008,1.1000977-0.050293c0.3666992,0.3666992,0.3833008,0.7333984,0.0498047,1.1000977  l-2.449707,2.6499023l3.7998047-0.6000977l2.75-3.0498047v-0.0498047l3.2001953-3.6000977l-1.7001953-2.5  c-0.2998047-0.3999023-0.2333984-0.75,0.2001953-1.050293c0.3999023-0.2998047,0.75-0.2329102,1.0498047,0.2001953l4.5498047,6.75  h3.300293l-3.5-6.8999023c-0.1000977-0.1665039-0.1166992-0.3500977-0.050293-0.550293  c0.0668945-0.199707,0.2001953-0.3496094,0.4003906-0.449707c0.4331055-0.2333984,0.7666016-0.1166992,1,0.3500977  l4.0498047,7.949707v0.050293l0.6000977,1.1499023l4.5498047-6.2001953l-4.5-4.6000977  c-0.2666016-0.2666016-0.3164063-0.5498047-0.1499023-0.8496094l1.3999023-2.75l-4.0498047-8.25  c-0.1000977-0.1669922-0.1166992-0.3500977-0.050293-0.550293l3.800293-11.2998047l-10.8999023,5.3500977l-3.4501953,8.75  l1.5498047,2.8496094v0.050293l2.300293,4.6000977c0.2333984,0.4331055,0.1166992,0.7666016-0.3500977,1  c-0.4335938,0.2333984-0.7666016,0.1166992-1-0.3500977l-2.1000977-4.2001953l-27.0498047-2.6000977L18.3647461,47.2270508z   M71.1650391,66.0273438l0.3999023,1.75l2-3l-4.8500977-3.9501953l-2.449707,2.7998047  c-0.2001953,0.1337891-0.3500977,0.2001953-0.4501953,0.2001953l-2,0.2998047l6.75,1.3500977  C70.8984375,65.5439453,71.0981445,65.7270508,71.1650391,66.0273438z M51.5649414,64.7773438l-5.9501953-1.550293  l0.6000977,5.3999023l2.6499023,3.4003906h0.050293L51.5649414,64.7773438z M58.5649414,75.3769531  c0,0.4667969-0.25,0.7001953-0.75,0.7001953h-1.8999023c-0.5,0-0.75-0.2333984-0.75-0.7001953  c0-0.199707,0.0830078-0.3662109,0.25-0.5c0.1333008-0.1665039,0.2998047-0.25,0.5-0.25h1.8999023  c0.2001953,0,0.3833008,0.0834961,0.5498047,0.25C58.4980469,75.0107422,58.5649414,75.1772461,58.5649414,75.3769531z   M53.4150391,75.3769531c0,0.4667969-0.25,0.7001953-0.75,0.7001953H27.5649414c-0.5,0-0.75-0.2333984-0.75-0.7001953  c0-0.5,0.25-0.75,0.75-0.75h25.1000977c0.199707,0,0.3833008,0.0834961,0.5498047,0.25  C53.3481445,75.0107422,53.4150391,75.1772461,53.4150391,75.3769531z M33.4648438,72.0273438h7.75l-2.5-7.3500977  l-6.199707,2.6499023L33.4648438,72.0273438z M43.0151367,62.8271484l-2.9501953,1.25l2.75,7.9501953h4.1499023  l-2.0498047-2.6503906c-0.1000977-0.1333008-0.1499023-0.2666016-0.1499023-0.3999023l-0.7001953-6.1499023l-0.75-0.2001953  L43.0151367,62.8271484z"/>
  </g>
  <g id="SvgjsG1283" featurekey="8L6ael-0" transform="matrix(2.6040890292009773,0,0,2.6040890292009773,-4.21862455015445,91.99691543096677)" fill="#cccccc">
    <path d="M3.84 10.94 q0.3 0 0.5 0.21 t0.2 0.51 l0 7.48 q0 0.28 -0.2 0.49 t-0.5 0.21 l-1.52 0 q-0.28 0 -0.49 -0.21 t-0.21 -0.49 l0 -7.48 q0 -0.3 0.21 -0.51 t0.49 -0.21 l1.52 0 z M3.84 5 q0.3 0 0.5 0.21 t0.2 0.49 l0 3.7 q0 0.3 -0.2 0.51 t-0.5 0.21 l-1.52 0 q-0.28 0 -0.49 -0.21 t-0.21 -0.51 l0 -3.7 q0 -0.28 0.21 -0.49 t0.49 -0.21 l1.52 0 z M16.928 7.859999999999999 q-0.26 -0.04 -0.43 -0.24 t-0.17 -0.46 l0 -1.46 q0 -0.34 0.24 -0.54 t0.56 -0.16 q1.72 0.28 3.06 1.22 q1.74 1.26 2.46 3.34 q0.12 0.34 -0.08 0.64 t-0.58 0.3 l-1.6 0 q-0.22 0 -0.4 -0.11 t-0.26 -0.31 q-0.44 -1.04 -1.34 -1.66 q-0.7 -0.44 -1.46 -0.56 z M21.988 14.5 q0.38 0 0.58 0.3 t0.08 0.64 q-0.72 2.08 -2.46 3.34 q-1.34 0.94 -3.06 1.22 l-0.1 0 q-0.28 0 -0.46 -0.18 q-0.24 -0.18 -0.24 -0.52 l0 -1.46 q0 -0.26 0.16 -0.46 t0.42 -0.24 q0.84 -0.12 1.48 -0.56 q0.9 -0.62 1.34 -1.66 q0.08 -0.2 0.26 -0.31 t0.4 -0.11 l1.6 0 z M14.828000000000001 5.24 q0.26 0.2 0.26 0.54 l0 1.56 q0 0.22 -0.15 0.41 t-0.37 0.27 q-0.28 0.06 -0.44 0.14 q-0.8 0.36 -1.36 0.98 q-1.14 1.28 -1.14 3.35 t1.14 3.37 q0.7 0.8 1.8 1.12 q0.22 0.06 0.37 0.25 t0.15 0.41 l0 1.58 q0 0.34 -0.26 0.54 q-0.18 0.16 -0.46 0.16 l-0.14 0 q-2.14 -0.46 -3.62 -2.08 q-1.9 -2.14 -1.9 -5.34 t1.9 -5.34 q1.48 -1.64 3.62 -2.06 q0.32 -0.08 0.6 0.14 z M37.296 16.96 q0.3 0 0.5 0.21 t0.2 0.51 l0 1.46 q0 0.28 -0.2 0.49 t-0.5 0.21 l-9.88 0 q-0.28 0 -0.49 -0.21 t-0.21 -0.49 l0 -1.46 q0 -0.3 0.21 -0.51 t0.49 -0.21 l9.88 0 z M27.416 13.86 q-0.28 0 -0.49 -0.21 t-0.21 -0.49 l0 -1.5 q0 -0.28 0.21 -0.49 t0.49 -0.21 l8.98 0 q0.3 0 0.51 0.21 t0.21 0.49 l0 1.5 q0 0.28 -0.21 0.49 t-0.51 0.21 l-8.98 0 z M37.296 5 q0.3 0 0.5 0.21 t0.2 0.49 l0 1.46 q0 0.3 -0.2 0.51 t-0.5 0.21 l-9.88 0 q-0.28 0 -0.49 -0.21 t-0.21 -0.51 l0 -1.46 q0 -0.28 0.21 -0.49 t0.49 -0.21 l9.88 0 z M51.664 14.1 l3.02 4.62 q0.22 0.36 0.02 0.72 q-0.08 0.16 -0.25 0.26 t-0.35 0.1 l-1.82 0 q-0.18 0 -0.34 -0.09 t-0.24 -0.23 l-3.04 -4.82 l-3.56 0 l0 4.44 q0 0.28 -0.21 0.49 t-0.49 0.21 l-1.52 0 q-0.28 0 -0.49 -0.21 t-0.21 -0.49 l0 -6.58 q0 -0.28 0.21 -0.49 t0.49 -0.21 l6.16 0 q1.76 0 2.34 -1 q0.2 -0.32 0.2 -0.92 q0 -0.94 -0.62 -1.48 q-0.64 -0.58 -1.84 -0.58 l-6.24 0 q-0.28 0 -0.49 -0.21 t-0.21 -0.49 l0 -1.44 q0 -0.28 0.21 -0.49 t0.49 -0.21 l6.42 0 q2.34 0 3.74 1.32 q1.46 1.32 1.46 3.58 q0 1.46 -0.64 2.49 t-1.86 1.57 z M72.032 18.86 q0.14 0.32 -0.07 0.65 t-0.57 0.33 l-13.32 0 q-0.18 0 -0.34 -0.09 t-0.24 -0.23 q-0.22 -0.32 -0.06 -0.66 l0.62 -1.46 q0.08 -0.2 0.26 -0.32 t0.38 -0.12 l9.32 0 l-3.28 -7.84 l-2.68 6.4 q-0.08 0.2 -0.25 0.31 t-0.39 0.11 l-1.68 0 q-0.38 0 -0.6 -0.32 q-0.08 -0.14 -0.1 -0.32 t0.04 -0.34 l4.06 -9.52 q0.08 -0.2 0.25 -0.32 t0.39 -0.12 l1.92 0 q0.22 0 0.39 0.12 t0.25 0.32 z M77 5 q0.3 0 0.51 0.21 t0.21 0.51 l0 1.46 q0 0.3 -0.21 0.51 t-0.51 0.21 l-2.06 0 q-0.28 0 -0.49 -0.21 t-0.21 -0.51 l0 -1.46 q0 -0.3 0.21 -0.51 t0.49 -0.21 l2.06 0 z M85.94 5 q0.28 0 0.49 0.21 t0.21 0.51 l0 1.46 q0 0.3 -0.21 0.51 t-0.49 0.21 l-4.02 0 l0 11.36 q0 0.28 -0.21 0.49 t-0.49 0.21 l-1.54 0 q-0.3 0 -0.51 -0.21 t-0.21 -0.49 l0 -13.54 q0 -0.3 0.21 -0.51 t0.51 -0.21 l6.26 0 z M96.10799999999999 5.16 q0.24 0.2 0.24 0.54 l0 1.5 q0 0.26 -0.15 0.45 t-0.41 0.25 q-1.28 0.26 -2.18 1.22 q-1.22 1.28 -1.22 3.33 t1.22 3.35 q0.9 0.94 2.18 1.2 q0.26 0.06 0.41 0.25 t0.15 0.45 l0 1.5 q0 0.32 -0.24 0.54 q-0.22 0.16 -0.46 0.16 l-0.12 0 q-2.32 -0.38 -3.98 -2.1 q-2.08 -2.14 -2.08 -5.33 t2.08 -5.37 q1.62 -1.68 3.98 -2.08 q0.32 -0.06 0.58 0.14 z M102.38799999999999 7.1 q2.08 2.18 2.08 5.37 t-2.08 5.33 q-1.66 1.72 -3.98 2.1 l-0.12 0 q-0.24 0 -0.46 -0.16 q-0.24 -0.22 -0.24 -0.54 l0 -1.5 q0 -0.26 0.15 -0.45 t0.41 -0.25 q1.28 -0.26 2.18 -1.2 q1.22 -1.3 1.22 -3.35 t-1.22 -3.33 q-0.9 -0.96 -2.18 -1.22 q-0.26 -0.06 -0.41 -0.25 t-0.15 -0.45 l0 -1.5 q0 -0.34 0.25 -0.54 t0.57 -0.14 q2.36 0.4 3.98 2.08 z M115.37599999999999 5 q2.38 0 3.84 1.37 t1.46 3.65 t-1.44 3.64 t-3.86 1.36 l-3.82 0 l0 4.08 q0 0.28 -0.21 0.49 t-0.49 0.21 l-1.52 0 q-0.28 0 -0.49 -0.21 t-0.21 -0.49 l0 -6.2 q0 -0.28 0.21 -0.49 t0.49 -0.21 l5.92 0 q1.34 0 1.92 -0.58 q0.58 -0.52 0.58 -1.58 t-0.6 -1.63 t-1.9 -0.57 l-5.92 0 q-0.28 0 -0.49 -0.21 t-0.21 -0.49 l0 -1.44 q0 -0.28 0.21 -0.49 t0.49 -0.21 l6.04 0 z M134.26399999999998 12.42 q0.86 0.54 1.31 1.32 t0.45 1.74 q0 2.26 -1.72 3.46 q-1.16 0.84 -3.14 1.06 l-0.08 0 q-0.28 0 -0.46 -0.18 q-0.24 -0.22 -0.24 -0.52 l0 -1.44 q0 -0.26 0.18 -0.46 t0.44 -0.24 q0.94 -0.1 1.46 -0.44 q0.4 -0.24 0.54 -0.62 q0.08 -0.22 0.08 -0.56 q0 -0.22 -0.08 -0.38 t-0.28 -0.3 q-0.58 -0.4 -1.5 -0.68 l-0.32 -0.1 q-1 -0.28 -1.84 -0.46 q-0.18 -0.04 -0.58 -0.14 l-0.22 -0.06 q-0.72 -0.18 -1.52 -0.5 q-1.18 -0.5 -1.94 -1.26 q-0.88 -0.88 -0.88 -2.32 q0 -1.98 1.52 -3.22 q1.04 -0.88 2.92 -1.12 q0.32 -0.04 0.55 0.18 t0.23 0.52 l0 1.44 q0 0.26 -0.16 0.46 t-0.41 0.23 t-0.51 0.11 q-0.58 0.22 -0.82 0.43 t-0.34 0.43 q-0.1 0.34 -0.1 0.64 q0 0.16 0.18 0.34 q0.28 0.28 0.82 0.5 q0.24 0.1 0.84 0.3 l2.5 0.62 l0.12 0.04 q0.94 0.26 1.36 0.4 q0.94 0.32 1.64 0.78 z M130.92399999999998 7.9 q-0.24 -0.06 -0.39 -0.25 t-0.15 -0.45 l0 -1.46 q0 -0.32 0.26 -0.54 q0.1 -0.1 0.26 -0.13 t0.3 -0.01 q1.76 0.28 2.86 1.2 q1.5 1.24 1.6 3.16 q0.02 0.28 -0.19 0.51 t-0.51 0.23 l-1.56 0 q-0.26 0 -0.46 -0.18 t-0.22 -0.44 q-0.08 -0.52 -0.34 -0.86 q-0.42 -0.5 -1.3 -0.76 q-0.06 0 -0.08 -0.02 l-0.08 0 z M128.584 17.08 q0.24 0.04 0.4 0.24 t0.16 0.44 l0 1.48 q0 0.32 -0.24 0.54 q-0.2 0.16 -0.46 0.16 l-0.1 0 q-1.86 -0.28 -3.06 -1.22 q-1.56 -1.24 -1.76 -3.46 q-0.04 -0.32 0.18 -0.55 t0.52 -0.23 l1.58 0 q0.28 0 0.48 0.19 t0.22 0.47 q0.06 1 0.98 1.54 q0.42 0.24 1.1 0.4 z"/>
  </g>
</svg>
